<svg height="56" viewBox="0 0 56 56" width="56" xmlns="http://www.w3.org/2000/svg"><path d="m16.5156 49.5742h22.7578c2.3906 0 3.8203-1.3125 3.8203-3.8437v-.6094c.0235-6.4688-6.8671-11.7188-9.8906-14.5781-.8438-.7969-1.2891-1.5234-1.2891-2.5781s.4453-1.7578 1.2891-2.5782c3-2.9062 9.8906-7.8281 9.8906-14.5547v-.5624c0-2.5313-1.4297-3.8438-3.8203-3.8438h-22.7578c-2.3438 0-3.6328 1.3125-3.6328 3.6328v.7734c0 6.7266 6.8906 11.6485 9.9141 14.5547.8437.8204 1.289 1.5235 1.289 2.5782s-.4453 1.7812-1.289 2.5781c-3.0235 2.8593-9.9141 8.1093-9.9141 14.5781v.8203c0 2.3203 1.289 3.6328 3.6328 3.6328zm2.4375-3.2109c-1.125 0-1.4765-1.2422-.375-2.0625l8.0156-5.9766c.2578-.2109.3985-.3515.3985-.7031v-11.2734c0-1.2657-.2578-1.8985-1.1485-2.6485-1.3359-1.125-3.8671-2.9062-5.0156-4.5234-.4688-.6562-.4219-1.1953.1641-1.1953h13.9922c.5859 0 .6328.5391.164 1.1953-1.1484 1.6172-3.6562 3.3984-5.0156 4.5234-.8906.75-1.1484 1.3828-1.1484 2.6485v11.2734c0 .3516.1406.4922.3984.7031l8.039 5.9766c1.1016.8203.7266 2.0625-.3749 2.0625z"/></svg>